<svg xmlns="http://www.w3.org/2000/svg" xmlns:xlink="http://www.w3.org/1999/xlink" viewBox="0 0 836.42 894.07"><defs><style>.cls-1{fill:url(#linear-gradient);}</style><linearGradient id="linear-gradient" x1="235.55" y1="694.3" x2="626.56" y2="32.17" gradientTransform="translate(-0.2 -0.06) rotate(0.03)" gradientUnits="userSpaceOnUse"><stop offset="0" stop-color="#2f9900"/><stop offset="0.14" stop-color="#419903"/><stop offset="0.35" stop-color="#62980a"/><stop offset="0.43" stop-color="#849711"/><stop offset="0.55" stop-color="#bf951c"/><stop offset="1" stop-color="#d69421"/></linearGradient></defs><title>logo-sisi-vertical_1</title><g id="Layer_2" data-name="Layer 2"><g id="Layer_2-2" data-name="Layer 2"><path class="cls-1" d="M582.1,30.66A438.69,438.69,0,0,0,532,14.41,453.91,453.91,0,0,0,418.39,0C187.41-.1.1,172,0,384.3c-.06,143,84.79,267.81,210.78,334.11a441.19,441.19,0,0,0,163,48.4q21.83,2.13,44.3,2.16c231,.11,418.29-172,418.38-384.29C836.5,225.75,731.68,89.31,582.1,30.66ZM554.57,689.3A195.54,195.54,0,0,0,580.85,654q24.46-41.75,24.49-97.26c0-9.11-.05-27-4.44-42.23-.26-.88-.53-1.77-.83-2.63-20.14-61.5-111.86-72.19-245.69-132.43-41.53-18.69-75-36.69-97.7-49.62.92,1.06,1.91,2.13,2.94,3.18a171.77,171.77,0,0,0,14.29,15.46c2.6,2.5,5.08,4.81,6.23,5.78a457,457,0,0,0,56.34,44.34,538.13,538.13,0,0,0,49.68,29.46c1.32.68,2.59,1.33,3.81,1.94q37.75,18.88,61.39,34,36.74,23.19,52.58,48.25t15.83,61.19q0,33.95-15.88,56t-45.57,37.7Q435.67,679,393.38,686.54t-69,7.51q-16,0-30.42-.4c-136.3-46.44-233.41-167-233.35-308.49.07-136.4,90.49-253.36,219.2-303.06A210.83,210.83,0,0,0,246.93,127Q227,163.4,227,213q0,48.51,21.86,88.12a48.13,48.13,0,0,0,7.84,11.75c22.74,12.93,56.17,30.92,97.7,49.62C488.22,422.7,579.94,433.4,600.08,494.89c.21.17.4.38.6.56-4.75-17-9.51-30.59-20.61-49.29-18.28-30.78-41.24-47.6-60.09-62.9,0,0-10.27-7.16-15.72-10.61q-32.73-20.52-66.68-38t-54.6-31q-40.74-25.91-55.59-50.42t-14.83-50.93q0-29.62,14.12-51.73T360.93,116q22.65-14,52.6-20.72a264.54,264.54,0,0,1,58.14-6.71q47.31,0,79.52,3.27a5.79,5.79,0,0,1,.6.07q29.55,3,35.43,3.63a363.15,363.15,0,0,1,42.6,24.76l.52.34a6.58,6.58,0,0,1,.54.38c1.19.8,2.37,1.61,3.52,2.43s2,1.41,3,2.14q2.18,1.53,4.29,3.11,2.32,1.69,4.6,3.44,7.35,5.61,14.37,11.58c.8.65,1.57,1.33,2.35,2s1.29,1.1,1.91,1.66q8.29,7.24,16.1,15c1.17,1.15,2.33,2.33,3.49,3.52.16.15.32.32.47.49,1.23,1.24,2.43,2.5,3.62,3.77s2.4,2.57,3.57,3.86c.84.91,1.65,1.81,2.46,2.72s1.48,1.65,2.2,2.49q5.6,6.38,10.84,13,1.45,1.82,2.85,3.67c1.16,1.48,2.29,3,3.4,4.51q3.16,4.23,6.14,8.56c.24.33.47.67.7,1,1,1.39,1.91,2.8,2.83,4.21s2.07,3.11,3.07,4.69c1.15,1.79,2.28,3.59,3.39,5.43.67,1.08,1.33,2.19,2,3.29.37.58.72,1.18,1.06,1.79.58,1,1.13,1.92,1.67,2.89.28.47.57,1,.84,1.46.84,1.46,1.67,3,2.47,4.45s1.78,3.28,2.64,4.93a1.33,1.33,0,0,1,.06.12c.84,1.62,1.68,3.25,2.49,4.88s1.66,3.35,2.46,5,1.47,3.11,2.19,4.68l.42.93c.53,1.16,1,2.31,1.56,3.49.33.76.66,1.53,1,2.29.23.54.47,1.1.69,1.67.48,1.1.95,2.22,1.4,3.34q2.84,6.88,5.31,13.92c.25.72.51,1.42.74,2.13.43,1.26.86,2.5,1.27,3.77a7.71,7.71,0,0,1,.26.77c.53,1.59,1,3.21,1.53,4.82s.91,2.93,1.33,4.41c.21.69.42,1.37.61,2.07.14.48.28,1,.41,1.46.35,1.22.7,2.47,1,3.71,1,3.82,2,7.68,2.84,11.55.3,1.26.57,2.52.84,3.79.09.41.17.82.25,1.23.29,1.36.57,2.72.82,4.09.1.44.18.9.26,1.36.24,1.18.44,2.35.65,3.52.16.85.3,1.7.44,2.55.25,1.48.49,3,.71,4.47s.43,2.84.62,4.27c.13.86.25,1.75.35,2.61.2,1.5.38,3,.55,4.51.27,2.26.49,4.52.7,6.78.14,1.46.25,2.9.36,4.36,0,.45.08.89.09,1.33.08,1,.15,1.94.21,2.92.09,1.31.16,2.62.22,3.93,0,.29,0,.56,0,.83.08,1.38.14,2.75.17,4.13.13,3.5.19,7,.19,10.52C775.72,522.59,684.36,640.06,554.57,689.3Z"/><path d="M98.08,864.24a27.69,27.69,0,0,1-4.39,15.33,29.27,29.27,0,0,1-12.86,10.65q-8.47,3.84-20.08,3.85-13.92,0-23-5.26a30.6,30.6,0,0,1-10.42-10.1,23,23,0,0,1-4-12.29,8.33,8.33,0,0,1,8.53-8.4A7.22,7.22,0,0,1,37,860a15.17,15.17,0,0,1,3.56,5.7,38.15,38.15,0,0,0,3.88,7.51,15.72,15.72,0,0,0,5.87,5,21.71,21.71,0,0,0,9.94,2q8.46,0,13.76-4t5.29-9.84a10.37,10.37,0,0,0-2.86-7.6,18.39,18.39,0,0,0-7.37-4.46Q64.53,852.7,57,851a88.41,88.41,0,0,1-17-5.55,27.5,27.5,0,0,1-10.84-8.66q-4-5.47-4-13.63a23.43,23.43,0,0,1,4.23-13.79,26.7,26.7,0,0,1,12.25-9.26,50.14,50.14,0,0,1,18.86-3.24,46.39,46.39,0,0,1,15,2.15A31.69,31.69,0,0,1,86,804.69a23.86,23.86,0,0,1,6.09,7.48A17.22,17.22,0,0,1,94,819.8a9,9,0,0,1-2.4,6.12,7.66,7.66,0,0,1-6,2.73,6.91,6.91,0,0,1-5-1.64,22.19,22.19,0,0,1-3.69-5.35,24.35,24.35,0,0,0-6.15-8.31q-3.6-3-11.55-3-7.37,0-11.89,3.24t-4.53,7.79a8,8,0,0,0,1.54,4.88,13,13,0,0,0,4.24,3.52A27.58,27.58,0,0,0,54,832.11q2.76.84,9.1,2.44a143.56,143.56,0,0,1,14.4,4.1,43.7,43.7,0,0,1,11,5.46,22.33,22.33,0,0,1,7.06,8.11A26.09,26.09,0,0,1,98.08,864.24Z"/><path d="M115,882.46V808.38c0-3.85.88-6.73,2.63-8.66a8.78,8.78,0,0,1,6.8-2.88,9.1,9.1,0,0,1,7,2.85q2.65,2.85,2.66,8.69v74.08q0,5.84-2.66,8.72a9.06,9.06,0,0,1-7,2.89,8.79,8.79,0,0,1-6.77-2.92C115.9,889.2,115,886.31,115,882.46Z"/><path d="M226.8,864.24a27.69,27.69,0,0,1-4.39,15.33,29.27,29.27,0,0,1-12.86,10.65q-8.48,3.84-20.08,3.85-13.92,0-23-5.26a30.6,30.6,0,0,1-10.42-10.1,23,23,0,0,1-4-12.29,8.33,8.33,0,0,1,8.53-8.4,7.22,7.22,0,0,1,5.1,1.93,15,15,0,0,1,3.56,5.7,38.15,38.15,0,0,0,3.88,7.51,15.72,15.72,0,0,0,5.87,5,21.71,21.71,0,0,0,9.94,2q8.46,0,13.76-4T208,866.3a10.37,10.37,0,0,0-2.86-7.6,18.39,18.39,0,0,0-7.37-4.46q-4.53-1.54-12.09-3.27a88.41,88.41,0,0,1-17-5.55,27.39,27.39,0,0,1-10.83-8.66q-4-5.47-4-13.63a23.43,23.43,0,0,1,4.23-13.79,26.7,26.7,0,0,1,12.25-9.26,50.14,50.14,0,0,1,18.86-3.24,46.39,46.39,0,0,1,15,2.15,31.69,31.69,0,0,1,10.49,5.7,23.86,23.86,0,0,1,6.09,7.48,17.22,17.22,0,0,1,1.92,7.63,9,9,0,0,1-2.4,6.12,7.66,7.66,0,0,1-6,2.73,6.91,6.91,0,0,1-5-1.64,22.19,22.19,0,0,1-3.69-5.35,24.35,24.35,0,0,0-6.15-8.31q-3.6-3-11.55-3-7.37,0-11.89,3.24t-4.53,7.79a8,8,0,0,0,1.54,4.88,13,13,0,0,0,4.24,3.52,27.58,27.58,0,0,0,5.45,2.31c1.84.56,4.87,1.37,9.11,2.44a144.1,144.1,0,0,1,14.39,4.1,43.7,43.7,0,0,1,11,5.46,22.33,22.33,0,0,1,7.06,8.11A26.09,26.09,0,0,1,226.8,864.24Z"/><path d="M243.73,882.46V808.38c0-3.85.88-6.73,2.63-8.66a8.78,8.78,0,0,1,6.8-2.88,9.1,9.1,0,0,1,7,2.85q2.65,2.85,2.66,8.69v74.08q0,5.84-2.66,8.72a9.06,9.06,0,0,1-7,2.89,8.79,8.79,0,0,1-6.77-2.92C244.62,889.2,243.73,886.31,243.73,882.46Z"/><path d="M305.88,866H285.61q-4.62,0-7-2.15a7.11,7.11,0,0,1-2.41-5.55,7.23,7.23,0,0,1,2.35-5.61q2.34-2.15,7.08-2.15h20.27q4.74,0,7.09,2.15a7.86,7.86,0,0,1,0,11.16Q310.69,866,305.88,866Z"/><path d="M407.92,862.77a25.2,25.2,0,0,1-2.21,9.72,35.62,35.62,0,0,1-19.08,18.43,43.51,43.51,0,0,1-17.19,3.15,60.22,60.22,0,0,1-13.54-1.41,37.92,37.92,0,0,1-11.06-4.4,37.41,37.41,0,0,1-9.14-7.85,47.11,47.11,0,0,1-6.35-9.91,51.56,51.56,0,0,1-3.94-11.71,63.49,63.49,0,0,1-1.32-13.21,58.42,58.42,0,0,1,3.31-20.33,43.19,43.19,0,0,1,9.46-15.36,41.34,41.34,0,0,1,14.43-9.72,46.74,46.74,0,0,1,17.63-3.33,44.2,44.2,0,0,1,20.34,4.55,36.9,36.9,0,0,1,13.66,11.26c3.16,4.46,4.74,8.69,4.74,12.66a8.28,8.28,0,0,1-2.31,5.78,7.35,7.35,0,0,1-5.58,2.5,7.73,7.73,0,0,1-5.48-1.73,24,24,0,0,1-4.07-6,28.66,28.66,0,0,0-8.76-10.45A21.35,21.35,0,0,0,369.05,812q-11.73,0-18.69,8.92t-7,25.33q0,11,3.08,18.25a23.07,23.07,0,0,0,8.72,10.87,24.11,24.11,0,0,0,13.21,3.59,23.26,23.26,0,0,0,13.89-4.07,24.68,24.68,0,0,0,8.56-12,20.39,20.39,0,0,1,3-6.06q1.8-2.34,5.77-2.34a8.07,8.07,0,0,1,5.84,2.37A7.88,7.88,0,0,1,407.92,862.77Z"/><path d="M487,813.13H444.09v23.09H483.6q4.36,0,6.51,1.95a6.68,6.68,0,0,1,2.15,5.17,6.89,6.89,0,0,1-2.12,5.22q-2.11,2-6.54,2H444.09v26.75h44.38c3,0,5.25.69,6.77,2.08a7.16,7.16,0,0,1,2.28,5.55,7,7,0,0,1-2.28,5.42c-1.52,1.39-3.77,2.08-6.77,2.08H436.72q-6.23,0-9-2.75T425,880.79V810.11a15.89,15.89,0,0,1,1.22-6.7,7.57,7.57,0,0,1,3.82-3.78,16,16,0,0,1,6.64-1.19H487c3,0,5.29.67,6.76,2a6.82,6.82,0,0,1,2.22,5.29,6.9,6.9,0,0,1-2.22,5.36C492.29,812.45,490,813.13,487,813.13Z"/><path d="M568.83,813.13H531.32v24h31.36q4.35,0,6.51,2a6.75,6.75,0,0,1,2.15,5.23,6.61,6.61,0,0,1-2.18,5.2q-2.19,1.92-6.48,1.92H531.32v31q0,5.89-2.67,8.75a9.62,9.62,0,0,1-13.72,0c-1.78-1.92-2.66-4.83-2.66-8.72V810.11a15.74,15.74,0,0,1,1.22-6.7,7.55,7.55,0,0,1,3.81-3.78,16.07,16.07,0,0,1,6.64-1.19h44.89q4.56,0,6.77,2a6.81,6.81,0,0,1,2.21,5.29,6.89,6.89,0,0,1-2.21,5.36C574.13,812.45,571.87,813.13,568.83,813.13Z"/><path d="M633.35,796.84q14.63,0,25.11,5.93a38.44,38.44,0,0,1,15.88,16.87q5.38,10.93,5.39,25.68a62.72,62.72,0,0,1-3,19.82,42.63,42.63,0,0,1-8.85,15.46,38.63,38.63,0,0,1-14.49,10,57.08,57.08,0,0,1-39.44-.09,39.21,39.21,0,0,1-14.56-10,42.92,42.92,0,0,1-8.82-15.58,62.93,62.93,0,0,1-3-19.69,60.66,60.66,0,0,1,3.11-19.89,42.46,42.46,0,0,1,9-15.39,39.06,39.06,0,0,1,14.36-9.72A51.85,51.85,0,0,1,633.35,796.84Zm27.07,48.36a44.19,44.19,0,0,0-3.33-17.9,25,25,0,0,0-9.53-11.45A26.25,26.25,0,0,0,633.35,812a25.78,25.78,0,0,0-10.55,2.15,23.17,23.17,0,0,0-8.33,6.26A29.89,29.89,0,0,0,609,830.86a47.32,47.32,0,0,0-2,14.34,48.47,48.47,0,0,0,2,14.49,29.69,29.69,0,0,0,5.71,10.74,23.87,23.87,0,0,0,8.47,6.38,25.43,25.43,0,0,0,10.48,2.12,25.81,25.81,0,0,0,13.44-3.65A25.33,25.33,0,0,0,656.8,864Q660.42,856.36,660.42,845.2Z"/><path d="M707.82,798.44h24.82a66.81,66.81,0,0,1,16.61,1.8A30.44,30.44,0,0,1,761.82,807q14.68,12.57,14.69,38.23A75.18,75.18,0,0,1,775,860.65a45.76,45.76,0,0,1-4.55,12.61,39,39,0,0,1-7.89,10,32.29,32.29,0,0,1-8.27,5.45,37.73,37.73,0,0,1-9.66,2.89,73,73,0,0,1-11.64.83H708.2q-5.19,0-7.82-1.57a7.27,7.27,0,0,1-3.43-4.42,27.88,27.88,0,0,1-.81-7.41V810.11q0-6.15,2.76-8.91T707.82,798.44Zm7.37,15.07v63.82h14.43q4.75,0,7.44-.26a23.3,23.3,0,0,0,5.58-1.28,15.23,15.23,0,0,0,5-2.89q9.57-8.08,9.56-27.83,0-13.92-4.2-20.85t-10.36-8.82a51.1,51.1,0,0,0-14.88-1.89Z"/><path d="M794,882.46V808.38c0-3.85.88-6.73,2.63-8.66a8.8,8.8,0,0,1,6.8-2.88,9.07,9.07,0,0,1,7,2.85c1.78,1.9,2.66,4.8,2.66,8.69v74.08c0,3.89-.88,6.8-2.66,8.72a9,9,0,0,1-7,2.89,8.77,8.77,0,0,1-6.76-2.92C794.9,889.2,794,886.31,794,882.46Z"/></g></g></svg>