<svg xmlns="http://www.w3.org/2000/svg" viewBox="0 0 836.42 768.97"><defs><style>.cls-1{fill:#fff;}</style></defs><title>logo-solo-white</title><g id="Layer_2" data-name="Layer 2"><g id="Layer_3" data-name="Layer 3"><path class="cls-1" d="M582.1,30.66A438.69,438.69,0,0,0,532,14.41,453.91,453.91,0,0,0,418.39,0C187.41-.1.1,172,0,384.3c-.06,143,84.79,267.81,210.78,334.11a441.19,441.19,0,0,0,163,48.4q21.83,2.13,44.3,2.16c231,.11,418.29-172,418.38-384.29C836.5,225.75,731.68,89.31,582.1,30.66ZM554.57,689.3A195.54,195.54,0,0,0,580.85,654q24.46-41.75,24.49-97.26c0-9.11-.05-27-4.44-42.23-.26-.88-.53-1.77-.83-2.63-20.14-61.5-111.86-72.19-245.69-132.43-41.53-18.69-75-36.69-97.7-49.62.92,1.06,1.91,2.13,2.94,3.18a171.77,171.77,0,0,0,14.29,15.46c2.6,2.5,5.08,4.81,6.23,5.78a457,457,0,0,0,56.34,44.34,538.13,538.13,0,0,0,49.68,29.46c1.32.68,2.59,1.33,3.81,1.94q37.75,18.88,61.39,34,36.74,23.19,52.58,48.25t15.83,61.19q0,33.95-15.88,56t-45.57,37.7Q435.67,679,393.38,686.54t-69,7.51q-16,0-30.42-.4c-136.3-46.44-233.41-167-233.35-308.49.07-136.4,90.49-253.36,219.2-303.06A210.83,210.83,0,0,0,246.93,127Q227,163.4,227,213q0,48.51,21.86,88.12a48.13,48.13,0,0,0,7.84,11.75c22.74,12.93,56.17,30.92,97.7,49.62C488.22,422.7,579.94,433.4,600.08,494.89c.21.17.4.38.6.56-4.75-17-9.51-30.59-20.61-49.29-18.28-30.78-41.24-47.6-60.09-62.9,0,0-10.27-7.16-15.72-10.61q-32.73-20.52-66.68-38t-54.6-31q-40.74-25.91-55.59-50.42t-14.83-50.93q0-29.62,14.12-51.73T360.93,116q22.65-14,52.6-20.72a264.54,264.54,0,0,1,58.14-6.71q47.31,0,79.52,3.27a5.79,5.79,0,0,1,.6.07q29.55,3,35.43,3.63a363.15,363.15,0,0,1,42.6,24.76l.52.34a6.58,6.58,0,0,1,.54.38c1.19.8,2.37,1.61,3.52,2.43s2,1.41,3,2.14q2.18,1.53,4.29,3.11,2.32,1.69,4.6,3.44,7.35,5.61,14.37,11.58c.8.65,1.57,1.33,2.35,2s1.29,1.1,1.91,1.66q8.29,7.24,16.1,15c1.17,1.15,2.33,2.33,3.49,3.52.16.15.32.32.47.49,1.23,1.24,2.43,2.5,3.62,3.77s2.4,2.57,3.57,3.86c.84.91,1.65,1.81,2.46,2.72s1.48,1.65,2.2,2.49q5.6,6.38,10.84,13,1.45,1.82,2.85,3.67c1.16,1.48,2.29,3,3.4,4.51q3.16,4.23,6.14,8.56c.24.33.47.67.7,1,1,1.39,1.91,2.8,2.83,4.21s2.07,3.11,3.07,4.69c1.15,1.79,2.28,3.59,3.39,5.43.67,1.08,1.33,2.19,2,3.29.37.58.72,1.18,1.06,1.79.58,1,1.13,1.92,1.67,2.89.28.47.57,1,.84,1.46.84,1.46,1.67,3,2.47,4.45s1.78,3.28,2.64,4.93a1.33,1.33,0,0,1,.06.12c.84,1.62,1.68,3.25,2.49,4.88s1.66,3.35,2.46,5,1.47,3.11,2.19,4.68l.42.93c.53,1.16,1,2.31,1.56,3.49.33.76.66,1.53,1,2.29.23.54.47,1.1.69,1.67.48,1.1.95,2.22,1.4,3.34q2.84,6.88,5.31,13.92c.25.72.51,1.42.74,2.13.43,1.26.86,2.5,1.27,3.77a7.71,7.71,0,0,1,.26.77c.53,1.59,1,3.21,1.53,4.82s.91,2.93,1.33,4.41c.21.69.42,1.37.61,2.07.14.48.28,1,.41,1.46.35,1.22.7,2.47,1,3.71,1,3.82,2,7.68,2.84,11.55.3,1.26.57,2.52.84,3.79.09.41.17.82.25,1.23.29,1.36.57,2.72.82,4.09.1.44.18.9.26,1.36.24,1.18.44,2.35.65,3.52.16.85.3,1.7.44,2.55.25,1.48.49,3,.71,4.47s.43,2.84.62,4.27c.13.86.25,1.75.35,2.61.2,1.5.38,3,.55,4.51.27,2.26.49,4.52.7,6.78.14,1.46.25,2.9.36,4.36,0,.45.08.89.09,1.33.08,1,.15,1.94.21,2.92.09,1.31.16,2.62.22,3.93,0,.29,0,.56,0,.83.08,1.38.14,2.75.17,4.13.13,3.5.19,7,.19,10.52C775.72,522.59,684.36,640.06,554.57,689.3Z"/></g></g></svg>