<svg xmlns="http://www.w3.org/2000/svg" xmlns:xlink="http://www.w3.org/1999/xlink" viewBox="0 0 1486.77 291.87"><defs><style>.cls-1{fill:url(#linear-gradient);}</style><linearGradient id="linear-gradient" x1="89.29" y1="263.64" x2="237.7" y2="12.33" gradientTransform="translate(0.04 -0.14) rotate(0.03)" gradientUnits="userSpaceOnUse"><stop offset="0" stop-color="#2f9900"/><stop offset="0.14" stop-color="#419903"/><stop offset="0.35" stop-color="#62980a"/><stop offset="0.43" stop-color="#849711"/><stop offset="0.55" stop-color="#bf951c"/><stop offset="1" stop-color="#d69421"/></linearGradient></defs><title>logo-sisi</title><g id="Layer_2" data-name="Layer 2"><g id="Layer_1-2" data-name="Layer 1"><path class="cls-1" d="M220.94,11.64a164.66,164.66,0,0,0-19-6.17A172.57,172.57,0,0,0,158.8,0C71.13,0,0,65.27,0,145.86c0,54.28,32.18,101.65,80,126.82a167.56,167.56,0,0,0,61.86,18.37q8.28.81,16.81.82c87.67,0,158.76-65.27,158.8-145.86C317.5,85.68,277.71,33.9,220.94,11.64Zm-10.45,250a74.7,74.7,0,0,0,10-13.4q9.28-15.84,9.29-36.91c0-3.46,0-10.24-1.69-16-.09-.34-.19-.67-.31-1C220.12,171,185.3,166.89,134.51,144c-15.76-7.1-28.45-13.93-37.08-18.84.34.4.72.81,1.11,1.21a67,67,0,0,0,5.42,5.87c1,.95,1.93,1.82,2.37,2.19a172.86,172.86,0,0,0,21.38,16.83,205.07,205.07,0,0,0,18.86,11.18l1.45.74a264.77,264.77,0,0,1,23.3,12.9q13.94,8.79,20,18.31t6,23.22q0,12.9-6,21.27T174,253.23q-8.6,4.49-24.65,7.35t-26.18,2.85q-6.06,0-11.54-.15C59.85,245.65,23,199.87,23,146.19c0-51.77,34.34-96.16,83.19-115A79.83,79.83,0,0,0,93.73,48.22Q86.16,62,86.16,80.84a68,68,0,0,0,8.29,33.45,18.23,18.23,0,0,0,3,4.45c8.63,4.91,21.32,11.74,37.08,18.84,50.8,22.86,85.61,26.92,93.25,50.26.08.06.15.14.23.21a69.63,69.63,0,0,0-7.82-18.71c-6.94-11.68-15.65-18.06-22.81-23.87,0,0-3.89-2.72-6-4Q179,133.66,166.09,127t-20.73-11.78q-15.47-9.83-21.1-19.13a36.9,36.9,0,0,1-5.63-19.34A35.78,35.78,0,0,1,124,57.13,40.84,40.84,0,0,1,137,44a64.61,64.61,0,0,1,20-7.86A100.62,100.62,0,0,1,179,33.63q18,0,30.18,1.24l.23,0c7.47.75,12,1.21,13.44,1.38a136.09,136.09,0,0,1,16.17,9.4l.2.13.21.14c.45.3.89.61,1.33.92l1.15.81c.55.39,1.09.79,1.63,1.19s1.17.86,1.74,1.3c1.87,1.42,3.68,2.88,5.46,4.39l.89.77c.25.2.49.42.72.63,2.11,1.83,4.15,3.74,6.12,5.71.44.44.88.88,1.32,1.34l.18.18c.47.47.92,1,1.37,1.44s.91,1,1.36,1.46c.32.34.63.68.93,1s.56.63.84.94c1.41,1.62,2.79,3.26,4.11,5,.37.46.73.92,1.09,1.39s.86,1.14,1.28,1.71c.8,1.07,1.58,2.16,2.33,3.25l.27.38c.37.53.73,1.07,1.08,1.6s.78,1.18,1.16,1.78.86,1.37,1.29,2.06l.75,1.25c.14.22.27.45.4.68s.43.73.63,1.1l.32.55c.32.56.63,1.13.94,1.69s.68,1.25,1,1.87l0,.05.94,1.85c.32.63.63,1.27.93,1.91s.56,1.18.83,1.78c.06.11.11.23.17.35.19.44.39.88.59,1.32l.37.87c.1.21.19.42.27.64.18.41.36.84.53,1.27q1.08,2.61,2,5.28c.1.27.2.54.29.81.16.47.32.94.48,1.43a2.47,2.47,0,0,1,.1.29c.2.61.39,1.22.58,1.83s.34,1.11.5,1.67c.08.27.16.52.23.79s.11.37.16.55c.13.47.26.94.38,1.41.39,1.45.76,2.92,1.08,4.39.11.47.22,1,.32,1.44l.09.46c.11.52.22,1,.32,1.55l.09.52c.09.45.17.89.25,1.34s.11.64.17,1l.27,1.7c.08.54.16,1.08.23,1.62.05.33.1.66.13,1q.12.86.21,1.71c.11.86.19,1.72.27,2.58,0,.55.09,1.1.14,1.65,0,.17,0,.34,0,.51,0,.36.06.73.08,1.11s.06,1,.08,1.49c0,.11,0,.21,0,.31,0,.52.05,1.05.06,1.57.05,1.33.07,2.66.07,4C294.43,198.35,259.75,242.94,210.49,261.63Z"/><path d="M458.1,173A39.77,39.77,0,0,1,451.78,195q-6.31,9.78-18.5,15.32t-28.88,5.54q-20,0-33-7.57a44,44,0,0,1-15-14.53q-5.78-9.09-5.77-17.67A12,12,0,0,1,362.87,164a10.41,10.41,0,0,1,7.34,2.77,21.76,21.76,0,0,1,5.12,8.21,54.6,54.6,0,0,0,5.58,10.8,22.7,22.7,0,0,0,8.45,7.15q5.44,2.81,14.3,2.81,12.18,0,19.79-5.67t7.62-14.17A15,15,0,0,0,427,165a26.45,26.45,0,0,0-10.61-6.41q-6.51-2.22-17.4-4.71a128.12,128.12,0,0,1-24.4-8A39.48,39.48,0,0,1,359,133.43q-5.76-7.89-5.76-19.61A33.7,33.7,0,0,1,359.28,94q6.09-8.67,17.62-13.33T404,76a67.11,67.11,0,0,1,21.54,3.09,45.62,45.62,0,0,1,15.09,8.21A34.46,34.46,0,0,1,449.43,98a24.92,24.92,0,0,1,2.77,11,13,13,0,0,1-3.46,8.82,11.06,11.06,0,0,1-8.63,3.92q-4.71,0-7.15-2.36a31.53,31.53,0,0,1-5.31-7.7,34.92,34.92,0,0,0-8.86-12q-5.16-4.29-16.61-4.29-10.6,0-17.11,4.66t-6.51,11.21a11.31,11.31,0,0,0,2.22,7,18.57,18.57,0,0,0,6.09,5.08,41.12,41.12,0,0,0,7.84,3.32q4,1.2,13.1,3.51a206,206,0,0,1,20.72,5.9A63.15,63.15,0,0,1,444.31,144a32.24,32.24,0,0,1,10.15,11.67Q458.11,162.72,458.1,173Z"/><path d="M482.46,199.18V92.6q0-8.31,3.78-12.46A12.65,12.65,0,0,1,496,76a13.06,13.06,0,0,1,10,4.11q3.82,4.09,3.83,12.5V199.18q0,8.38-3.83,12.55a13,13,0,0,1-10,4.15,12.6,12.6,0,0,1-9.74-4.2Q482.47,207.48,482.46,199.18Z"/><path d="M643.29,173A39.69,39.69,0,0,1,637,195q-6.32,9.78-18.5,15.32t-28.88,5.54q-20,0-33-7.57a44.08,44.08,0,0,1-15-14.53q-5.76-9.09-5.76-17.67A12,12,0,0,1,548.07,164a10.39,10.39,0,0,1,7.33,2.77,21.77,21.77,0,0,1,5.13,8.21,54.6,54.6,0,0,0,5.58,10.8,22.66,22.66,0,0,0,8.44,7.15q5.44,2.81,14.3,2.81,12.18,0,19.8-5.67t7.61-14.17A15,15,0,0,0,612.15,165a26.38,26.38,0,0,0-10.61-6.41q-6.51-2.22-17.39-4.71a128.24,128.24,0,0,1-24.41-8,39.45,39.45,0,0,1-15.59-12.46q-5.77-7.89-5.77-19.61A33.7,33.7,0,0,1,544.47,94q6.09-8.67,17.62-13.33T589.22,76a67.13,67.13,0,0,1,21.55,3.09,45.62,45.62,0,0,1,15.09,8.21A34.42,34.42,0,0,1,634.62,98a24.78,24.78,0,0,1,2.77,11,13,13,0,0,1-3.46,8.82,11,11,0,0,1-8.63,3.92q-4.71,0-7.15-2.36a31.53,31.53,0,0,1-5.31-7.7,35,35,0,0,0-8.85-12q-5.18-4.29-16.61-4.29-10.62,0-17.12,4.66t-6.51,11.21a11.31,11.31,0,0,0,2.22,7,18.77,18.77,0,0,0,6.09,5.08,41.4,41.4,0,0,0,7.84,3.32q4,1.2,13.11,3.51a205.72,205.72,0,0,1,20.71,5.9A63.15,63.15,0,0,1,629.5,144a32.15,32.15,0,0,1,10.15,11.67Q643.3,162.72,643.29,173Z"/><path d="M667.66,199.18V92.6c0-5.54,1.25-9.69,3.78-12.46A12.61,12.61,0,0,1,681.22,76a13,13,0,0,1,10,4.11q3.82,4.09,3.83,12.5V199.18q0,8.38-3.83,12.55a13,13,0,0,1-10,4.15,12.61,12.61,0,0,1-9.74-4.2Q667.66,207.48,667.66,199.18Z"/><path d="M757.07,175.55H727.91q-6.64,0-10.1-3.09a10.2,10.2,0,0,1-3.46-8,10.45,10.45,0,0,1,3.36-8.07q3.38-3.09,10.2-3.09h29.16q6.82,0,10.2,3.09a11.31,11.31,0,0,1,0,16.05Q764,175.55,757.07,175.55Z"/><path d="M903.88,170.85a36,36,0,0,1-3.19,14,50.46,50.46,0,0,1-10,14.76,51.08,51.08,0,0,1-17.44,11.77q-10.61,4.51-24.73,4.52a86.69,86.69,0,0,1-19.47-2,54.53,54.53,0,0,1-15.91-6.32A53.42,53.42,0,0,1,800,196.22,66.85,66.85,0,0,1,790.84,182a74.5,74.5,0,0,1-5.67-16.84,91.94,91.94,0,0,1-1.89-19A84.26,84.26,0,0,1,788,116.87a62.37,62.37,0,0,1,13.61-22.1,59.3,59.3,0,0,1,20.76-14A67.16,67.16,0,0,1,847.77,76Q864.2,76,877,82.54t19.65,16.2q6.83,9.63,6.83,18.22a11.87,11.87,0,0,1-3.32,8.3,10.54,10.54,0,0,1-8,3.6q-5.26,0-7.89-2.49a34.48,34.48,0,0,1-5.86-8.58q-5.35-10-12.6-15t-17.85-5q-16.89,0-26.9,12.82t-10,36.45q0,15.78,4.43,26.25T828,188.93a34.59,34.59,0,0,0,19,5.17q11.81,0,20-5.86T879.33,171a29.44,29.44,0,0,1,4.34-8.72c1.72-2.24,4.49-3.37,8.3-3.37a11.61,11.61,0,0,1,8.4,3.42A11.38,11.38,0,0,1,903.88,170.85Z"/><path d="M1017.65,99.43H955.92v33.22h56.84q6.27,0,9.37,2.81a9.57,9.57,0,0,1,3.09,7.43,9.93,9.93,0,0,1-3.05,7.52q-3,2.91-9.41,2.91H955.92v38.47h63.85q6.46,0,9.74,3a10.31,10.31,0,0,1,3.27,8,10.1,10.1,0,0,1-3.27,7.8q-3.29,3-9.74,3H945.31q-9,0-12.87-4t-3.93-12.82V95.09a22.75,22.75,0,0,1,1.76-9.64A10.92,10.92,0,0,1,935.76,80a23.2,23.2,0,0,1,9.55-1.7h72.34q6.55,0,9.74,2.9a10.82,10.82,0,0,1,0,15.32Q1024.2,99.43,1017.65,99.43Z"/><path d="M1135.39,99.43h-54V134h45.12q6.29,0,9.37,2.82a9.66,9.66,0,0,1,3.09,7.52,9.48,9.48,0,0,1-3.14,7.47q-3.13,2.78-9.32,2.77h-45.12v44.57q0,8.49-3.83,12.59a13.86,13.86,0,0,1-19.74,0q-3.84-4.15-3.83-12.55V95.09a22.76,22.76,0,0,1,1.75-9.64,10.92,10.92,0,0,1,5.49-5.45,23.23,23.23,0,0,1,9.55-1.7h64.59q6.55,0,9.74,2.9a10.82,10.82,0,0,1,0,15.32Q1141.94,99.43,1135.39,99.43Z"/><path d="M1228.22,76q21,0,36.13,8.54a55.33,55.33,0,0,1,22.83,24.26q7.75,15.74,7.75,37a90.36,90.36,0,0,1-4.24,28.51A61.8,61.8,0,0,1,1278,196.5a55.92,55.92,0,0,1-20.86,14.4q-12.36,5-28.33,5a74.75,74.75,0,0,1-28.42-5.12,56.44,56.44,0,0,1-20.94-14.44,61.7,61.7,0,0,1-12.69-22.43,90.48,90.48,0,0,1-4.29-28.33,87.53,87.53,0,0,1,4.47-28.6,61.51,61.51,0,0,1,13-22.15,56.08,56.08,0,0,1,20.67-14A74.62,74.62,0,0,1,1228.22,76Zm38.94,69.57q0-14.85-4.8-25.74t-13.7-16.47a37.69,37.69,0,0,0-20.44-5.58,37,37,0,0,0-15.18,3.09,33.44,33.44,0,0,0-12,9,43,43,0,0,0-7.93,15.08,68.12,68.12,0,0,0-2.91,20.62,69.78,69.78,0,0,0,2.91,20.86,42.73,42.73,0,0,0,8.21,15.45,34.47,34.47,0,0,0,12.18,9.19,38.5,38.5,0,0,0,34.42-2.22q8.8-5.26,14-16.24T1267.16,145.56Z"/><path d="M1335.35,78.3h35.71a96.39,96.39,0,0,1,23.9,2.58A43.85,43.85,0,0,1,1413,90.57q21.14,18.09,21.14,55a107.45,107.45,0,0,1-2.13,22.24,65.67,65.67,0,0,1-6.55,18.14,56.28,56.28,0,0,1-11.35,14.44,47.09,47.09,0,0,1-11.9,7.84,53.94,53.94,0,0,1-13.89,4.15,105.63,105.63,0,0,1-16.75,1.2H1335.9q-7.47,0-11.25-2.26a10.5,10.5,0,0,1-4.94-6.37,40.38,40.38,0,0,1-1.15-10.65V95.09q0-8.85,4-12.82T1335.35,78.3ZM1346,100v91.81h20.76c4.56,0,8.12-.12,10.71-.36a33.75,33.75,0,0,0,8-1.85,21.85,21.85,0,0,0,7.2-4.15q13.75-11.62,13.75-40.05,0-20-6-30t-14.91-12.69a73.63,73.63,0,0,0-21.4-2.72Z"/><path d="M1459.37,199.18V92.6q0-8.31,3.78-12.46a12.61,12.61,0,0,1,9.78-4.15,13,13,0,0,1,10,4.11q3.82,4.09,3.83,12.5V199.18q0,8.38-3.83,12.55a13,13,0,0,1-10,4.15,12.58,12.58,0,0,1-9.73-4.2Q1459.36,207.48,1459.37,199.18Z"/></g></g></svg>